<svg width="112" height="29" viewBox="0 0 112 29" fill="none" xmlns="http://www.w3.org/2000/svg">
<g opacity="0.63">
<path d="M24.9654 5.31592C23.9606 5.31592 23.2603 4.838 22.8645 3.88217C21.403 3.88217 19.7995 4.23807 18.0538 4.94986C16.9678 5.39726 16.2371 5.80908 15.8616 6.18531C15.4861 6.56154 15.2831 6.85643 15.2526 7.06996C15.2323 7.2835 15.3389 7.46653 15.5723 7.61906C15.8058 7.76141 16.1305 7.89869 16.5466 8.03088C16.9729 8.16306 17.4651 8.29525 18.0234 8.42744C20.9463 9.10873 22.7985 9.58156 23.58 9.84593C25.1328 10.3645 26.2949 10.934 27.0663 11.5542C27.797 12.1745 28.1624 13.0185 28.1624 14.0862C28.1624 14.9708 27.8883 15.7182 27.3403 16.3283C26.8024 16.9384 26.0869 17.4824 25.1937 17.9603C24.3006 18.4382 23.3009 18.8653 22.1947 19.2415C21.0985 19.6076 19.9365 19.9228 18.7084 20.1872C17.4905 20.4516 16.2878 20.6702 15.1004 20.843C12.7762 21.1684 10.7921 21.3311 9.14791 21.3311C6.1539 21.3311 3.84497 20.9701 2.2211 20.2482C1.61215 19.9736 1.11484 19.2873 0.729173 18.1891C0.424698 17.2841 0.272461 16.5418 0.272461 15.9622C0.272461 15.3725 0.323207 15.0471 0.424698 14.9861C0.52619 14.925 0.734248 14.925 1.04887 14.9861C1.3635 15.0369 1.77454 15.1284 2.282 15.2606L4.10885 15.7487C6.94046 16.4605 9.93447 16.8164 13.0909 16.8164C15.415 16.8164 17.384 16.6079 18.9977 16.191C19.9517 15.9368 20.4592 15.6521 20.52 15.3369C20.5606 15.0623 19.8096 14.7217 18.2669 14.3149C17.5666 14.1217 16.7547 13.9184 15.8311 13.7048C11.3553 12.6168 8.65567 11.9152 7.7321 11.6C6.80852 11.2848 6.20465 11.0051 5.92047 10.7611C5.64644 10.517 5.41809 10.2476 5.2354 9.9527C4.90048 9.3731 4.73302 8.82401 4.73302 8.30542C4.73302 7.77667 4.75839 7.36993 4.80914 7.08522C4.87003 6.8005 4.95123 6.53612 5.05272 6.29208C5.26585 5.79383 5.5348 5.45319 5.85958 5.27016C8.46791 3.80591 12.2992 2.51961 17.3535 1.41126C21.8496 0.414755 25.549 -0.0834961 28.4516 -0.0834961C29.0403 -0.0834961 29.4818 0.0181878 29.7761 0.221556C30.2835 0.597786 30.5068 0.999437 30.4459 1.42651C30.385 1.85358 30.2531 2.25015 30.0501 2.61621C29.8573 2.9721 29.6137 3.29749 29.3194 3.59238C29.025 3.87709 28.6952 4.1313 28.3298 4.355C27.9746 4.56854 27.6042 4.74649 27.2185 4.88884C26.4472 5.17356 25.6961 5.31592 24.9654 5.31592Z" fill="white"/>
<path d="M35.4935 16.8469C35.8284 16.7045 36.2953 16.4808 36.8941 16.1758C40.5579 14.2946 42.5675 13.2574 42.9227 13.0642L43.5621 12.7134C44.2218 12.2863 44.5263 11.9508 44.4755 11.7067C44.3639 11.1882 44.0848 10.9797 43.6382 11.0814C43.1917 11.1729 42.7248 11.3 42.2376 11.4627C41.7606 11.6254 41.2532 11.8237 40.7153 12.0576C39.5887 12.5253 38.5992 12.993 37.7466 13.4608C34.7628 15.1793 32.9664 16.2215 32.3574 16.5876C31.921 17.5739 31.5303 18.5552 31.1852 19.5313L29.3431 24.7477C28.7646 26.3645 28.181 27.4576 27.5924 28.027C27.2778 28.3422 26.9276 28.4998 26.542 28.4998C25.5879 28.4998 24.8369 28.1643 24.2888 27.4932C23.7408 26.8322 23.4668 25.9882 23.4668 24.9612C23.4668 23.9444 23.5987 22.9377 23.8626 21.9412C24.1265 20.9549 24.4918 19.9533 24.9587 18.9365C25.9026 16.8825 27.1661 14.9657 28.7494 13.1862C29.7136 10.5933 31.3171 8.07663 33.5601 5.63622C34.9302 4.15164 36.204 3.10429 37.3813 2.49419C37.9699 2.18914 38.4723 2.03661 38.8884 2.03661C39.3045 2.03661 39.6192 2.13321 39.8323 2.32641C40.0454 2.50944 40.152 2.74332 40.152 3.02803C40.152 3.30258 40.0657 3.65339 39.8932 4.08046C39.7206 4.50753 39.4872 4.98544 39.1929 5.5142C38.8986 6.04296 38.5535 6.6073 38.1577 7.20724L36.8941 9.0528C36.7926 9.20533 36.7419 9.3426 36.7419 9.46462C36.7419 9.65782 36.8586 9.75442 37.092 9.75442C37.3559 9.75442 37.843 9.58664 38.5535 9.25108L40.9893 8.12239C43.1206 7.15639 45.1606 6.6734 47.1092 6.6734C48.1242 6.6734 49.0782 7.15639 49.9713 8.12239C50.8746 9.09856 51.3262 10.1459 51.3262 11.2644C51.3262 12.993 50.6208 14.3251 49.2101 15.2606L47.3224 16.5113C46.6424 16.9384 45.9421 17.3604 45.2215 17.7773L43.0293 18.9822C40.563 20.2634 38.655 20.9041 37.3051 20.9041C35.9655 20.9041 34.9911 20.7363 34.3822 20.4007C33.7732 20.0652 33.4688 19.5923 33.4688 18.9822C33.4688 18.1586 34.1437 17.4468 35.4935 16.8469Z" fill="white"/>
<path d="M76.393 9.20533C76.7178 9.20533 76.8802 9.47987 76.8802 10.029C76.8802 10.9746 76.2205 12.1999 74.9011 13.7048L74.0333 14.5895C71.4047 17.2231 68.9283 18.9771 66.6042 19.8516C65.163 20.3906 64.1278 20.3651 63.4985 19.7754C62.9809 19.2771 62.5699 18.4738 62.2654 17.3655L61.9 16.0385L58.6574 18.0366L56.7848 19.1042C54.552 20.3245 52.8774 20.9346 51.761 20.9346C50.33 20.9346 49.1374 20.3804 48.1834 19.272C47.27 18.2247 46.8133 17.0096 46.8133 15.6267C46.8133 14.2641 47.3563 13.049 48.4422 11.9813C49.995 10.456 52.4461 9.05788 55.7953 7.78684C58.9618 6.59713 61.5194 6.00228 63.4681 6.00228C64.1278 6.00228 64.4576 6.32767 64.4576 6.97845C64.4576 7.42586 64.3713 7.76141 64.1988 7.98512C64.0263 8.20882 63.6711 8.43761 63.1331 8.67148L61.215 9.49512C58.3732 10.6848 56.2926 11.9203 54.9732 13.2015C54.5977 13.5574 54.4099 13.9031 54.4099 14.2387C54.4099 14.5742 54.6789 14.742 55.2168 14.742C55.7446 14.742 56.9726 14.1726 58.9009 13.0337L60.1645 12.2863C62.1233 11.1068 63.7624 10.517 65.0818 10.517C66.1982 10.517 66.9391 11.0102 67.3045 11.9965C67.3958 12.2609 67.4821 12.5304 67.5633 12.8049C67.6444 13.0693 67.7256 13.3083 67.8068 13.5218C67.9895 14.0201 68.1519 14.2692 68.294 14.2692C68.4462 14.2692 68.6594 14.198 68.9334 14.0556C69.2074 13.9031 69.5068 13.715 69.8316 13.4913C70.1665 13.2574 70.5116 13.0032 70.8668 12.7287L72.7089 11.2492C74.3429 9.88661 75.5709 9.20533 76.393 9.20533Z" fill="white"/>
<path d="M93.9698 10.8221C93.9698 11.3 93.3456 12.2253 92.0972 13.5981C90.8184 14.9911 89.565 16.1249 88.337 16.9994C85.9621 18.7687 83.3284 19.9787 80.4359 20.6295C79.3397 20.8837 78.2994 21.0108 77.315 21.0108C76.3407 21.0108 75.5287 20.9244 74.8792 20.7515C74.2398 20.5888 73.6613 20.3702 73.1437 20.0957C72.6362 19.811 72.1947 19.4856 71.8192 19.1195C71.4437 18.7534 71.1291 18.367 70.8753 17.9603C70.378 17.1672 70.1294 16.435 70.1294 15.7639C70.1294 15.0928 70.2055 14.5031 70.3577 13.9946C70.4998 13.4862 70.7028 13.0032 70.9667 12.5456C71.8903 10.878 73.7476 9.40361 76.5386 8.12239C78.7409 7.09539 80.8418 6.42936 82.8412 6.1243C83.7039 5.99212 84.3179 5.92602 84.6833 5.92602C85.0486 5.92602 85.3531 5.96669 85.5967 6.04804C85.8504 6.11922 86.0686 6.2209 86.2513 6.35309C86.6573 6.64798 86.8603 7.04963 86.8603 7.55805C86.8603 8.06647 86.7283 8.54946 86.4645 9.00704C86.2006 9.45445 85.8657 9.83068 85.4597 10.1357C84.6681 10.7255 83.7851 11.0204 82.8108 11.0204C81.4812 11.0204 80.3851 10.8475 79.5224 10.5018C78.9236 10.7153 78.4162 11.1068 78 11.6762C77.655 12.144 77.4824 12.566 77.4824 12.9422C77.4824 13.3083 77.5636 13.6692 77.726 14.0251C77.8986 14.3709 78.1371 14.681 78.4415 14.9555C79.1114 15.5453 79.9182 15.8402 80.8621 15.8402C83.0543 15.8402 85.6068 14.6759 88.5197 12.3474L89.905 11.2644C91.3665 10.1459 92.4068 9.58664 93.0259 9.58664C93.6551 9.58664 93.9698 9.99846 93.9698 10.8221Z" fill="white"/>
<path d="M110.542 9.44937C111.029 9.44937 111.272 9.72391 111.272 10.273C111.272 10.6391 111.146 11.1017 110.892 11.661C110.648 12.2101 110.293 12.7287 109.826 13.2168C109.359 13.6947 108.821 14.1929 108.212 14.7115C107.614 15.2301 106.908 15.7741 106.096 16.3435C105.295 16.913 104.407 17.4773 103.432 18.0366C102.458 18.5958 101.423 19.0992 100.327 19.5466C97.9009 20.5431 95.5514 21.0413 93.278 21.0413C91.5425 21.0413 90.0252 20.5888 88.7261 19.6838C87.3661 18.7382 86.6861 17.5892 86.6861 16.2368C86.6861 14.1116 87.8279 12.0931 90.1115 10.1815C92.0804 8.53421 94.3995 7.25808 97.0687 6.35309C98.6926 5.804 100.068 5.52945 101.194 5.52945C102.108 5.52945 102.879 5.75316 103.508 6.20057C104.178 6.68865 104.513 7.34451 104.513 8.16815C104.513 9.45953 103.493 10.8882 101.453 12.4541C101.128 12.7083 100.834 12.9219 100.57 13.0947L100.022 13.4608C99.0072 14.1726 97.4645 14.9708 95.3941 15.8554C96.0335 16.191 96.6272 16.3588 97.1753 16.3588C97.7335 16.3588 98.2308 16.2927 98.6672 16.1605C99.1138 16.0283 99.6161 15.8402 100.174 15.5962C100.733 15.3521 101.326 15.0623 101.956 14.7268C102.595 14.381 103.239 14.0048 103.889 13.5981C105.34 12.6931 106.599 11.7678 107.664 10.8221C108.223 10.3035 108.933 9.89169 109.796 9.58664C110.08 9.49512 110.329 9.44937 110.542 9.44937ZM93.7499 13.7353L94.5872 13.3083C94.8613 13.1659 95.1048 13.0337 95.318 12.9117C97.3681 11.7322 98.5353 11.0051 98.8194 10.7306C99.1036 10.456 99.2457 10.2679 99.2457 10.1662C99.2457 10.0544 99.2153 9.92728 99.1544 9.78492C99.0935 9.64257 99.0123 9.51546 98.9108 9.40361C98.6672 9.11889 98.4084 8.97654 98.1344 8.97654C97.8603 8.97654 97.5559 9.02738 97.2209 9.12906C96.8962 9.23075 96.5663 9.3731 96.2314 9.55613C95.8965 9.729 95.5717 9.94253 95.2571 10.1967C94.9526 10.4408 94.6837 10.7052 94.4502 10.9899C93.9123 11.6305 93.6434 12.1847 93.6434 12.6524C93.6434 13.1202 93.6789 13.4811 93.7499 13.7353Z" fill="white"/>
</g>
</svg>
